<?xml version="1.0" encoding="UTF-8" standalone="no"?><!DOCTYPE svg PUBLIC "-//W3C//DTD SVG 1.1//EN" "http://www.w3.org/Graphics/SVG/1.1/DTD/svg11.dtd"><svg width="100%" height="100%" viewBox="0 0 512 512" version="1.1" xmlns="http://www.w3.org/2000/svg" xmlns:xlink="http://www.w3.org/1999/xlink" xml:space="preserve" xmlns:serif="http://www.serif.com/" style="fill-rule:evenodd;clip-rule:evenodd;stroke-linejoin:round;stroke-miterlimit:2"><circle cx="256" cy="256" r="256" style="fill:white"/><path d="M497.41,341.333C462.241,440.717 367.379,512 256,512C144.621,512 49.759,440.717 14.59,341.333L497.41,341.333Z" style="fill:rgb(218,0,0)"/><path d="M256,0C367.379,0 462.241,71.283 497.41,170.667L14.59,170.667C49.759,71.283 144.621,0 256,0Z" style="fill:rgb(35,159,64)"/><path d="M250.939,311.132C247.067,311.953 243.058,312.385 238.956,312.385C232.831,312.385 226.744,311.421 220.918,309.528C221.945,309.578 222.972,309.603 224,309.603C231.71,309.603 239.12,308.209 245.995,305.661C227.437,295.84 214.673,276.301 214.673,254.014C214.673,237.022 222.093,220.85 234.973,209.767C227.823,220.349 224,232.832 224,245.603C224,266.7 234.432,285.552 250.376,297.238L248.446,249.574L248.446,211.956C251.457,210.512 254.056,208.33 256,205.614L256.046,205.678C257.985,208.364 260.566,210.523 263.554,211.956L263.554,249.574L261.624,297.238C277.568,285.552 288,266.7 288,245.603C288,232.832 284.177,220.349 277.027,209.767C289.907,220.85 297.327,237.022 297.327,254.014C297.327,276.301 284.563,295.84 266.005,305.661C272.88,308.209 280.29,309.603 288,309.603C289.028,309.603 290.055,309.578 291.082,309.528C285.256,311.421 279.169,312.385 273.044,312.385C268.942,312.385 264.933,311.953 261.061,311.132L260.98,313.146L256,320L251.02,313.146L250.939,311.132ZM295.574,298.33C310.671,289.604 320,273.438 320,256C320,233.646 304.669,214.003 282.985,208.573C299.054,220.653 308.526,239.625 308.526,259.728C308.526,273.66 303.977,287.218 295.574,298.33ZM216.426,298.33C201.329,289.604 192,273.438 192,256C192,233.646 207.331,214.003 229.015,208.573C212.946,220.653 203.474,239.625 203.474,259.728C203.474,273.66 208.023,287.218 216.426,298.33ZM256.037,196.886C257.604,199.541 260.468,201.178 263.554,201.178C267.735,201.178 271.357,198.175 272.133,194.067C272.567,195.155 272.79,196.317 272.79,197.489C272.79,202.555 268.621,206.724 263.554,206.724C260.55,206.724 257.728,205.259 256,202.802L255.959,202.86C254.228,205.282 251.426,206.724 248.446,206.724C243.379,206.724 239.21,202.555 239.21,197.489C239.21,196.317 239.433,195.155 239.867,194.067C240.643,198.175 244.265,201.178 248.446,201.178C251.556,201.178 254.441,199.515 256,196.823L256.037,196.886Z" style="fill:rgb(218,0,0);fill-rule:nonzero"/></svg>